<svg viewBox="0 0 10 10" xmlns="http://www.w3.org/2000/svg">
    <path
        d="M1.76079 4.95754C1.65455 5.06907 1.65885 5.2456 1.77038 5.35184C1.88191 5.45807 2.05844 5.45378 2.16468 5.34225L4.3789 3.01766V8.49662C4.3789 8.65065 4.50377 8.77551 4.6578 8.77551C4.81183 8.77551 4.93669 8.65065 4.93669 8.49662V3.01753L7.15104 5.34225C7.25728 5.45378 7.43381 5.45807 7.54534 5.35184C7.65687 5.2456 7.66116 5.06907 7.55493 4.95754L4.92712 2.19875C4.86724 2.13588 4.79085 2.09871 4.71145 2.08722C4.69409 2.08383 4.67615 2.08206 4.6578 2.08206C4.63932 2.08206 4.62126 2.08386 4.60378 2.08729C4.52455 2.09886 4.44836 2.13601 4.3886 2.19875L1.76079 4.95754Z" />
</svg>