<svg viewBox="0 0 12 13" xmlns="http://www.w3.org/2000/svg">
    <path
        d="M9.67659 0.984863C10.8243 0.984863 11.7546 1.91524 11.7546 3.06292V10.416C11.7546 11.5637 10.8243 12.4941 9.67659 12.4941H2.32348C1.1758 12.4941 0.245422 11.5637 0.245422 10.416V3.06292C0.245422 1.91524 1.1758 0.984863 2.32348 0.984863H9.67659ZM10.7955 4.50157H1.20452V10.416C1.20452 11.034 1.7055 11.535 2.32348 11.535H9.67659C10.2946 11.535 10.7955 11.034 10.7955 10.416V4.50157ZM3.28258 8.33797C3.72399 8.33797 4.08183 8.69581 4.08183 9.13722C4.08183 9.57864 3.72399 9.93648 3.28258 9.93648C2.84116 9.93648 2.48333 9.57864 2.48333 9.13722C2.48333 8.69581 2.84116 8.33797 3.28258 8.33797ZM6.00003 8.33797C6.44144 8.33797 6.79928 8.69581 6.79928 9.13722C6.79928 9.57864 6.44144 9.93648 6.00003 9.93648C5.55862 9.93648 5.20078 9.57864 5.20078 9.13722C5.20078 8.69581 5.55862 8.33797 6.00003 8.33797ZM3.28258 5.78037C3.72399 5.78037 4.08183 6.13821 4.08183 6.57962C4.08183 7.02104 3.72399 7.37887 3.28258 7.37887C2.84116 7.37887 2.48333 7.02104 2.48333 6.57962C2.48333 6.13821 2.84116 5.78037 3.28258 5.78037ZM6.00003 5.78037C6.44144 5.78037 6.79928 6.13821 6.79928 6.57962C6.79928 7.02104 6.44144 7.37887 6.00003 7.37887C5.55862 7.37887 5.20078 7.02104 5.20078 6.57962C5.20078 6.13821 5.55862 5.78037 6.00003 5.78037ZM8.71748 5.78037C9.1589 5.78037 9.51674 6.13821 9.51674 6.57962C9.51674 7.02104 9.1589 7.37887 8.71748 7.37887C8.27607 7.37887 7.91823 7.02104 7.91823 6.57962C7.91823 6.13821 8.27607 5.78037 8.71748 5.78037ZM9.67659 1.94396H2.32348C1.7055 1.94396 1.20452 2.44494 1.20452 3.06292V3.54247H10.7955V3.06292C10.7955 2.44494 10.2946 1.94396 9.67659 1.94396Z" />
</svg>