<svg viewBox="0 0 10 11" xmlns="http://www.w3.org/2000/svg">
    <path
        d="M0.210342 0.513604L0.256284 0.460386C0.424739 0.291932 0.688342 0.276618 0.874097 0.414444L0.927314 0.460386L5.02037 4.55323L9.11343 0.460386C9.29873 0.275086 9.59916 0.275086 9.78446 0.460386C9.96976 0.645686 9.96976 0.946116 9.78446 1.13142L5.69162 5.22447L9.78446 9.31753C9.95291 9.48598 9.96823 9.74959 9.8304 9.93534L9.78446 9.98856C9.616 10.157 9.3524 10.1723 9.16665 10.0345L9.11343 9.98856L5.02037 5.89572L0.927314 9.98856C0.742015 10.1739 0.441584 10.1739 0.256284 9.98856C0.0709846 9.80326 0.0709846 9.50283 0.256284 9.31753L4.34913 5.22447L0.256284 1.13142C0.0878301 0.962962 0.0725161 0.699358 0.210342 0.513604L0.256284 0.460386L0.210342 0.513604Z" />
</svg>