<svg viewBox="0 0 74 24" xmlns="http://www.w3.org/2000/svg">
    <path
        d="M15.4936 10.6942H9.60648C9.45459 10.6942 9.33127 10.8113 9.33127 10.9555V13.6865C9.33127 13.8307 9.45459 13.9479 9.60635 13.9479H11.9031V17.3411C11.9031 17.3411 11.3874 17.508 9.96168 17.508C8.27963 17.508 5.92984 16.9247 5.92984 12.0222C5.92984 7.11861 8.3767 6.47349 10.6737 6.47349C12.662 6.47349 13.5187 6.80559 14.0637 6.96567C14.235 7.01548 14.3934 6.85371 14.3934 6.70946L15.0501 4.07061C15.0501 4.00316 15.026 3.92195 14.9449 3.86682C14.7236 3.71699 13.3732 3 9.96154 3C6.03156 3 2 4.58653 2 12.2134C2 19.8405 6.61562 20.977 10.5053 20.977C13.7257 20.977 15.6793 19.6712 15.6793 19.6712C15.7599 19.6291 15.7685 19.5223 15.7685 19.4733V10.9555C15.7685 10.8115 15.6455 10.6942 15.4937 10.6942H15.4936ZM45.8178 3.95464C45.8178 3.80935 45.6964 3.69208 45.5445 3.69208H42.2296C42.1934 3.69221 42.1576 3.69911 42.1242 3.71238C42.0908 3.72565 42.0605 3.74503 42.0351 3.76941C42.0096 3.79379 41.9894 3.8227 41.9757 3.85448C41.9619 3.88626 41.955 3.9203 41.9551 3.95464L41.9559 10.033H36.789V3.95477C36.789 3.80948 36.6671 3.69221 36.5155 3.69221H33.2006C33.1276 3.69259 33.0577 3.72046 33.0064 3.76969C32.955 3.81893 32.9264 3.8855 32.9267 3.95477V20.4131C32.9267 20.5584 33.0498 20.6765 33.2006 20.6765H36.5153C36.667 20.6765 36.7888 20.5584 36.7888 20.4131V13.3733H41.9558L41.9468 20.413C41.9468 20.5583 42.0698 20.6763 42.2213 20.6763H45.5441C45.6959 20.6763 45.8173 20.5583 45.8175 20.413V3.95477L45.8178 3.95464ZM21.7381 6.15515C21.7381 5.02266 20.7811 4.10733 19.6005 4.10733C18.421 4.10733 17.4633 5.02253 17.4633 6.15515C17.4633 7.28634 18.421 8.20414 19.6005 8.20414C20.7811 8.20414 21.7381 7.28634 21.7381 6.15515V6.15515ZM21.475 16.9498V9.35259C21.475 9.20834 21.3524 9.09042 21.2008 9.09042H17.8964C17.7448 9.09042 17.6093 9.23882 17.6093 9.38308V20.2676C17.6093 20.5875 17.8193 20.6826 18.0912 20.6826H21.0683C21.3951 20.6826 21.475 20.5304 21.475 20.2624V16.9498V16.9498ZM58.487 9.09055H55.1975C55.0466 9.09055 54.9238 9.20847 54.9238 9.35363V17.4238C54.9238 17.4238 54.0882 18.0039 52.902 18.0039C51.716 18.0039 51.4013 17.4932 51.4013 16.3913V9.35376C51.4013 9.20847 51.2786 9.09042 51.1277 9.09042H47.7892C47.6385 9.09042 47.515 9.20847 47.515 9.35376V16.9242C47.515 20.1971 49.4377 20.9979 52.0825 20.9979C54.2523 20.9979 56.0016 19.8606 56.0016 19.8606C56.0016 19.8606 56.085 20.46 56.1226 20.531C56.1603 20.602 56.2585 20.6735 56.3646 20.6735L58.4885 20.6647C58.6392 20.6647 58.7626 20.5465 58.7626 20.402L58.7615 9.35363C58.7615 9.20847 58.6385 9.09055 58.487 9.09055V9.09055ZM66.066 18.0101C64.9251 17.9772 64.1511 17.4859 64.1511 17.4859V12.2737C64.1511 12.2737 64.9147 11.8297 65.8513 11.7503C67.0359 11.6496 68.1773 11.9891 68.1773 14.6704C68.1773 17.4977 67.6622 18.0557 66.066 18.01V18.0101ZM67.3635 8.73705C65.4952 8.73705 64.2244 9.52798 64.2244 9.52798V3.95464C64.2246 3.92035 64.2178 3.88636 64.2042 3.8546C64.1905 3.82284 64.1705 3.79394 64.1451 3.76955C64.1197 3.74516 64.0895 3.72576 64.0561 3.71247C64.0228 3.69918 63.9871 3.69225 63.951 3.69208H60.6266C60.5905 3.69223 60.5547 3.69915 60.5213 3.71243C60.488 3.72571 60.4577 3.74509 60.4323 3.76948C60.4068 3.79386 60.3867 3.82277 60.3731 3.85454C60.3594 3.88631 60.3525 3.92033 60.3527 3.95464V20.413C60.3527 20.5583 60.4754 20.6763 60.6271 20.6763H62.9335C63.0374 20.6763 63.116 20.6257 63.1741 20.5366C63.2314 20.4482 63.3141 19.7777 63.3141 19.7777C63.3141 19.7777 64.6734 21 67.2466 21C70.2675 21 72 19.5461 72 14.4729C72 9.39981 69.2331 8.73692 67.3635 8.73692V8.73705ZM31.0157 9.06201H28.5292L28.5254 5.94513C28.5254 5.82721 28.4614 5.76818 28.3175 5.76818H24.9291C24.7973 5.76818 24.7266 5.82319 24.7266 5.94331V9.16436C24.7266 9.16436 23.0286 9.55327 22.9137 9.58467C22.8565 9.60044 22.8061 9.63343 22.7703 9.67867C22.7345 9.72392 22.7152 9.77897 22.7152 9.83555V11.8596C22.7152 12.0052 22.8377 12.1226 22.9893 12.1226H24.7266V16.9919C24.7266 20.6086 27.4003 20.9639 29.2046 20.9639C30.029 20.9639 31.0151 20.7127 31.178 20.6557C31.2764 20.6213 31.3336 20.5247 31.3336 20.4196L31.3363 18.193C31.3363 18.0479 31.2071 17.9303 31.0615 17.9303C30.9166 17.9303 30.5461 17.9863 30.1643 17.9863C28.943 17.9863 28.5292 17.4474 28.5292 16.75L28.529 12.1227H31.0157C31.0519 12.1226 31.0878 12.1157 31.1212 12.1024C31.1546 12.0891 31.1849 12.0696 31.2104 12.0452C31.2358 12.0207 31.256 11.9918 31.2696 11.9599C31.2833 11.9281 31.2902 11.894 31.2899 11.8596V9.32444C31.2899 9.17915 31.1673 9.06214 31.0157 9.06214V9.06201Z" />
</svg>