<svg viewBox="0 0 14 14" xmlns="http://www.w3.org/2000/svg">
    <path
        d="M7.00004 0.856079C10.4194 0.856079 13.1913 3.628 13.1913 7.04734C13.1913 10.4667 10.4194 13.2386 7.00004 13.2386C3.5807 13.2386 0.808777 10.4667 0.808777 7.04734C0.808777 3.628 3.5807 0.856079 7.00004 0.856079ZM8.81931 9.83281H5.18077C5.5844 11.3272 6.28598 12.3101 7.00004 12.3101C7.71409 12.3101 8.41567 11.3272 8.81931 9.83281ZM4.21954 9.83315L2.53425 9.83307C3.12749 10.7821 4.01483 11.5284 5.06866 11.9444C4.74535 11.4369 4.47856 10.8016 4.28232 10.0777L4.21954 9.83315ZM11.4658 9.83307L9.78053 9.83315C9.5801 10.6588 9.29064 11.3805 8.93076 11.9444C9.91933 11.5544 10.761 10.8741 11.3512 10.0086L11.4658 9.83307ZM3.96272 5.80888H1.88426L1.88131 5.81953C1.78717 6.21345 1.73732 6.62457 1.73732 7.04734C1.73732 7.70113 1.85654 8.32707 2.07442 8.90462L4.03871 8.9044C3.95062 8.31687 3.90393 7.69276 3.90393 7.04734C3.90393 6.62391 3.92402 6.20966 3.96272 5.80888ZM9.10284 5.80892H4.89724C4.85513 6.20526 4.83247 6.61983 4.83247 7.04734C4.83247 7.7032 4.8858 8.32862 4.98087 8.90448H9.0192C9.11427 8.32862 9.1676 7.7032 9.1676 7.04734C9.1676 6.61983 9.14494 6.20526 9.10284 5.80892ZM12.1161 5.80836L10.0374 5.80889C10.076 6.20966 10.0961 6.62391 10.0961 7.04734C10.0961 7.69276 10.0495 8.31687 9.96137 8.9044L11.9256 8.90462C12.1435 8.32707 12.2627 7.70113 12.2627 7.04734C12.2627 6.62058 12.212 6.20568 12.1161 5.80836ZM5.06931 2.15029L5.05513 2.15568C3.78778 2.66001 2.76266 3.64261 2.20265 4.88058L4.08952 4.88081C4.2835 3.79578 4.62201 2.85118 5.06931 2.15029ZM7.00004 1.78462L6.92844 1.7879C6.1451 1.85956 5.38835 3.09884 5.03691 4.88055H8.96316C8.61271 3.10383 7.85921 1.86651 7.07821 1.78853L7.00004 1.78462ZM8.93141 2.15032L8.99755 2.25809C9.41181 2.94674 9.72635 3.85046 9.91055 4.88081L11.7974 4.88058C11.2622 3.69737 10.3021 2.74744 9.11167 2.2254L8.93141 2.15032Z" />
</svg>