<svg viewBox="0 0 152 50" xmlns="http://www.w3.org/2000/svg">
    <path
        d="M2.55645 27V6.60587H4.56714V25.2191H16.344V27H2.55645ZM18.1251 22.6914C18.1251 21.7722 18.3932 20.9775 18.9294 20.3073C19.4656 19.6179 20.2029 19.0817 21.1412 18.6987C22.0986 18.3157 23.1997 18.1242 24.4445 18.1242C25.1721 18.1242 25.9285 18.1913 26.7137 18.3253C27.4988 18.4402 28.1977 18.603 28.8105 18.8136V17.5498C28.8105 16.2859 28.4371 15.2806 27.6903 14.5337C26.9434 13.7869 25.9094 13.4135 24.5881 13.4135C23.8029 13.4135 23.0178 13.5667 22.2327 13.8731C21.4476 14.1603 20.6337 14.5912 19.7911 15.1657L19.0443 13.7869C20.0209 13.1167 20.9784 12.6188 21.9167 12.2933C22.855 11.9486 23.8125 11.7762 24.7891 11.7762C26.6275 11.7762 28.0828 12.3028 29.1552 13.356C30.2276 14.4093 30.7638 15.8646 30.7638 17.7221V24.6446C30.7638 25.1617 31.0031 25.4297 31.4819 25.4489V27C31.0606 27.0574 30.7638 27.0766 30.5914 27.0574C30.1127 27.0383 29.7488 26.8851 29.4999 26.5979C29.251 26.3106 29.1169 26.0042 29.0978 25.6787L29.069 24.5872C28.3988 25.4489 27.5275 26.1191 26.4551 26.5979C25.3828 27.0574 24.2913 27.2872 23.1806 27.2872C22.204 27.2872 21.3327 27.0862 20.5667 26.684C19.8007 26.2627 19.1975 25.7074 18.7571 25.018C18.3358 24.3095 18.1251 23.534 18.1251 22.6914ZM28.1499 23.8403C28.5903 23.3233 28.8105 22.8446 28.8105 22.4041V20.2211C27.4892 19.7041 26.1104 19.4456 24.6742 19.4456C23.2763 19.4456 22.1465 19.7232 21.2848 20.2786C20.4231 20.8339 19.9922 21.5903 19.9922 22.5478C19.9922 23.3712 20.3082 24.118 20.9401 24.7882C21.5912 25.4585 22.4912 25.7936 23.6402 25.7936C24.5785 25.7936 25.4498 25.6117 26.2541 25.2478C27.0775 24.884 27.7094 24.4148 28.1499 23.8403ZM43.0554 27.2872C41.8107 27.2872 40.6905 26.9617 39.6947 26.3106C38.7181 25.6595 37.9425 24.8553 37.3681 23.8978V33.1182H35.4148V12.0347H37.167V14.9359C37.7606 13.9975 38.5457 13.2411 39.5224 12.6667C40.5181 12.073 41.5905 11.7762 42.7395 11.7762C43.7735 11.7762 44.7214 11.9964 45.5832 12.4369C46.4449 12.8582 47.1917 13.4326 47.8236 14.1603C48.4747 14.888 48.9726 15.721 49.3173 16.6593C49.662 17.5785 49.8343 18.536 49.8343 19.5317C49.8343 20.9296 49.5471 22.2222 48.9726 23.4095C48.4173 24.5776 47.6226 25.5159 46.5885 26.2244C45.5736 26.933 44.3959 27.2872 43.0554 27.2872ZM42.5097 25.5638C43.6012 25.5638 44.5395 25.2766 45.3246 24.7021C46.1289 24.1084 46.7513 23.352 47.1917 22.4329C47.6321 21.5137 47.8524 20.5466 47.8524 19.5317C47.8524 18.4594 47.6034 17.4636 47.1055 16.5444C46.6077 15.6252 45.9374 14.888 45.0948 14.3327C44.2714 13.7773 43.3331 13.4997 42.2799 13.4997C41.6288 13.4997 40.9394 13.672 40.2117 14.0167C39.5032 14.3422 38.8713 14.7922 38.316 15.3667C37.7798 15.9221 37.4638 16.5348 37.3681 17.2051V21.8009C37.8085 22.8542 38.4979 23.7446 39.4362 24.4723C40.3745 25.2 41.399 25.5638 42.5097 25.5638ZM59.9506 27.2872C58.5144 27.2872 57.2314 26.933 56.1016 26.2244C54.9909 25.5159 54.1196 24.5776 53.4877 23.4095C52.8557 22.2222 52.5398 20.9392 52.5398 19.5605C52.5398 18.1625 52.8557 16.8795 53.4877 15.7114C54.1388 14.5242 55.0196 13.5763 56.1303 12.8677C57.2601 12.1401 58.5335 11.7762 59.9506 11.7762C61.3868 11.7762 62.6602 12.1401 63.7709 12.8677C64.9007 13.5763 65.7816 14.5242 66.4135 15.7114C67.0646 16.8795 67.3902 18.1625 67.3902 19.5605C67.3902 20.9392 67.0742 22.2222 66.4423 23.4095C65.8103 24.5776 64.9295 25.5159 63.7996 26.2244C62.689 26.933 61.406 27.2872 59.9506 27.2872ZM54.5217 19.5892C54.5217 20.6998 54.7611 21.7148 55.2398 22.6339C55.7377 23.534 56.3984 24.2521 57.2218 24.7882C58.0452 25.3053 58.9548 25.5638 59.9506 25.5638C60.9464 25.5638 61.856 25.2957 62.6794 24.7595C63.5028 24.2233 64.1635 23.4957 64.6614 22.5765C65.1592 21.6573 65.4082 20.6424 65.4082 19.5317C65.4082 18.4211 65.1592 17.4061 64.6614 16.487C64.1635 15.5678 63.5028 14.8401 62.6794 14.3039C61.856 13.7678 60.9464 13.4997 59.9506 13.4997C58.974 13.4997 58.074 13.7773 57.2505 14.3327C56.4271 14.8688 55.7665 15.5965 55.2686 16.5157C54.7707 17.4349 54.5217 18.4594 54.5217 19.5892ZM78.556 13.7582C77.2538 13.7965 76.1049 14.1603 75.1091 14.8497C74.1325 15.5391 73.4431 16.487 73.0409 17.6934V27H71.0877V12.0347H72.926V15.6252C73.4431 14.572 74.1229 13.7199 74.9655 13.0688C75.8272 12.4177 76.7368 12.0539 77.6943 11.9773C77.8857 11.9581 78.0485 11.9486 78.1826 11.9486C78.3166 11.9486 78.4411 11.9581 78.556 11.9773V13.7582ZM92.2742 27L86.7305 19.3307L83.5421 22.318V27H81.5888V6.03139H83.5421V20.2211L92.0157 12.0635H94.17L88.0518 18.1817L94.3998 27H92.2742ZM102.929 27.2872C101.493 27.2872 100.21 26.933 99.0798 26.2244C97.95 25.5159 97.0595 24.568 96.4085 23.3808C95.7574 22.1935 95.4318 20.8913 95.4318 19.4743C95.4318 18.0764 95.7478 16.7934 96.3797 15.6252C97.0308 14.4571 97.9213 13.5284 99.0511 12.839C100.181 12.1305 101.464 11.7762 102.9 11.7762C104.375 11.7762 105.667 12.1305 106.778 12.839C107.889 13.5475 108.75 14.4859 109.363 15.654C109.995 16.8029 110.311 18.0668 110.311 19.4456C110.311 19.7519 110.301 20.0105 110.282 20.2211H97.4713C97.567 21.2935 97.8734 22.2509 98.3904 23.0935C98.9075 23.9169 99.5681 24.5776 100.372 25.0755C101.177 25.5542 102.058 25.7936 103.015 25.7936C103.992 25.7936 104.911 25.5446 105.773 25.0468C106.634 24.5489 107.247 23.8978 107.611 23.0935L109.306 23.5531C108.999 24.2808 108.52 24.9319 107.869 25.5063C107.237 26.0617 106.5 26.5021 105.658 26.8277C104.815 27.134 103.905 27.2872 102.929 27.2872ZM97.4138 18.8136H108.473C108.396 17.7413 108.099 16.7934 107.582 15.9699C107.065 15.1274 106.404 14.4763 105.6 14.0167C104.796 13.538 103.905 13.2986 102.929 13.2986C101.952 13.2986 101.062 13.538 100.258 14.0167C99.4532 14.4763 98.7926 15.1274 98.2755 15.9699C97.7777 16.7934 97.4904 17.7413 97.4138 18.8136ZM113.612 20.8243V12.0347H115.565V20.4796C115.565 23.8691 116.724 25.5638 119.041 25.5638C120.19 25.5638 121.262 25.1904 122.258 24.4436C123.273 23.6967 124 22.701 124.441 21.4562V12.0347H126.394V24.6446C126.394 25.1617 126.624 25.4297 127.083 25.4489V27C126.854 27.0383 126.672 27.0574 126.538 27.0574C126.423 27.0574 126.298 27.0574 126.164 27.0574C125.762 27.0191 125.417 26.866 125.13 26.5979C124.862 26.3298 124.728 26.0042 124.728 25.6212L124.671 23.6106C124.019 24.7787 123.129 25.6883 121.999 26.3393C120.889 26.9713 119.682 27.2872 118.38 27.2872C115.201 27.2872 113.612 25.1329 113.612 20.8243ZM143.822 27H141.869V18.6413C141.869 16.8795 141.601 15.5965 141.065 14.7922C140.548 13.9688 139.744 13.5571 138.652 13.5571C137.886 13.5571 137.13 13.7486 136.383 14.1316C135.636 14.4954 134.975 15.0029 134.401 15.654C133.845 16.2859 133.443 17.0136 133.194 17.837V27H131.241V12.0347H133.022V15.4242C133.616 14.3327 134.487 13.4518 135.636 12.7816C136.785 12.1113 138.03 11.7762 139.37 11.7762C140.481 11.7762 141.362 12.0443 142.013 12.5805C142.664 13.0975 143.123 13.8444 143.391 14.821C143.679 15.7784 143.822 16.9178 143.822 18.2391V27Z"
        fill="black" />
    <path
        d="M2.4623 47.639C2.03523 47.639 1.6382 47.5689 1.27119 47.4288C0.910851 47.282 0.593888 47.0684 0.320299 46.7882L0.600561 46.3077C0.894168 46.5813 1.18778 46.7815 1.48138 46.9083C1.78166 47.0284 2.09863 47.0885 2.43227 47.0885C2.83265 47.0885 3.15962 47.0084 3.41319 46.8482C3.67343 46.6814 3.80355 46.4445 3.80355 46.1376C3.80355 45.9307 3.74016 45.7739 3.61337 45.6671C3.49326 45.5537 3.31643 45.4636 3.08288 45.3969C2.856 45.3302 2.58241 45.2534 2.26211 45.1667C1.90178 45.0666 1.59816 44.9631 1.35126 44.8564C1.11104 44.7429 0.927533 44.6028 0.800748 44.436C0.680636 44.2625 0.62058 44.0389 0.62058 43.7654C0.62058 43.4317 0.703991 43.1514 0.870813 42.9246C1.04431 42.6977 1.27786 42.5275 1.57147 42.4141C1.87175 42.294 2.20539 42.2339 2.5724 42.2339C2.97278 42.2339 3.32644 42.2973 3.63339 42.4241C3.94035 42.5509 4.19058 42.7277 4.38409 42.9546L4.05379 43.415C3.87362 43.2015 3.65008 43.0447 3.38316 42.9446C3.12292 42.8378 2.83932 42.7844 2.53236 42.7844C2.31883 42.7844 2.11531 42.8145 1.92179 42.8745C1.72828 42.9279 1.56813 43.0213 1.44135 43.1548C1.32123 43.2816 1.26118 43.4584 1.26118 43.6853C1.26118 43.9655 1.36461 44.1591 1.57147 44.2658C1.77833 44.3726 2.09195 44.486 2.51235 44.6061C2.90605 44.7129 3.2497 44.8197 3.54331 44.9264C3.83692 45.0332 4.0638 45.1767 4.22394 45.3568C4.38409 45.5303 4.46417 45.7739 4.46417 46.0875C4.46417 46.5746 4.28066 46.955 3.91365 47.2286C3.54665 47.5022 3.06286 47.639 2.4623 47.639ZM5.16881 46.0375C5.16881 45.7172 5.26223 45.4403 5.44907 45.2067C5.63591 44.9665 5.89282 44.7796 6.21979 44.6462C6.55344 44.5127 6.93713 44.446 7.37087 44.446C7.62444 44.446 7.88802 44.4693 8.16161 44.5161C8.4352 44.5561 8.67876 44.6128 8.89229 44.6862V44.2458C8.89229 43.8054 8.76217 43.4551 8.50192 43.1948C8.24168 42.9346 7.88134 42.8045 7.42091 42.8045C7.14733 42.8045 6.87374 42.8578 6.60015 42.9646C6.32656 43.0647 6.04296 43.2148 5.74935 43.415L5.48911 42.9346C5.82943 42.701 6.16307 42.5275 6.49005 42.4141C6.81702 42.294 7.15066 42.2339 7.49098 42.2339C8.13158 42.2339 8.63872 42.4174 9.0124 42.7844C9.38608 43.1514 9.57292 43.6586 9.57292 44.3059V46.7181C9.57292 46.8983 9.65634 46.9917 9.82316 46.9984V47.5389C9.67635 47.5589 9.57292 47.5656 9.51287 47.5589C9.34605 47.5522 9.21926 47.4988 9.13251 47.3987C9.04577 47.2987 8.99905 47.1919 8.99238 47.0784L8.98237 46.6981C8.74882 46.9984 8.4452 47.2319 8.07152 47.3987C7.69784 47.5589 7.31748 47.639 6.93046 47.639C6.59014 47.639 6.28652 47.5689 6.01961 47.4288C5.75269 47.282 5.54249 47.0885 5.38902 46.8482C5.24221 46.6013 5.16881 46.3311 5.16881 46.0375ZM8.66207 46.4379C8.81555 46.2577 8.89229 46.0909 8.89229 45.9374V45.1767C8.43186 44.9965 7.95141 44.9064 7.45094 44.9064C6.96382 44.9064 6.57012 45.0032 6.26984 45.1967C5.96956 45.3902 5.81942 45.6538 5.81942 45.9874C5.81942 46.2744 5.92952 46.5346 6.14973 46.7682C6.37661 47.0017 6.69023 47.1185 7.09061 47.1185C7.41758 47.1185 7.72119 47.0551 8.00146 46.9283C8.28839 46.8015 8.5086 46.638 8.66207 46.4379ZM18.8008 47.5389H18.1201V44.6262C18.1201 44.0256 18.0234 43.5819 17.8299 43.2949C17.6363 43.0013 17.3494 42.8545 16.9691 42.8545C16.5687 42.8545 16.215 42.9946 15.9081 43.2749C15.6011 43.5552 15.3842 43.9155 15.2575 44.3559V47.5389H14.5768V44.6262C14.5768 44.0123 14.4801 43.5652 14.2865 43.2849C14.0997 42.998 13.8161 42.8545 13.4358 42.8545C13.042 42.8545 12.6884 42.9913 12.3748 43.2649C12.0678 43.5385 11.8509 43.8988 11.7242 44.3459V47.5389H11.0435V42.324H11.6641V43.5051C11.8776 43.1047 12.1579 42.7944 12.5049 42.5742C12.8519 42.3474 13.2356 42.2339 13.656 42.2339C14.0897 42.2339 14.44 42.3607 14.7069 42.6143C14.9739 42.8612 15.1373 43.1815 15.1974 43.5752C15.6778 42.681 16.3485 42.2339 17.2093 42.2339C17.7965 42.2339 18.2069 42.4408 18.4404 42.8545C18.6806 43.2616 18.8008 43.8054 18.8008 44.486V47.5389ZM22.904 47.639C22.4703 47.639 22.0799 47.5255 21.733 47.2987C21.3926 47.0718 21.1224 46.7915 20.9222 46.4579V49.6709H20.2416V42.324H20.8521V43.335C21.059 43.008 21.3326 42.7444 21.6729 42.5442C22.0199 42.3374 22.3936 42.2339 22.7939 42.2339C23.1543 42.2339 23.4846 42.3107 23.7849 42.4641C24.0851 42.6109 24.3454 42.8111 24.5656 43.0647C24.7925 43.3183 24.966 43.6085 25.0861 43.9355C25.2062 44.2558 25.2663 44.5895 25.2663 44.9364C25.2663 45.4236 25.1662 45.874 24.966 46.2877C24.7725 46.6948 24.4955 47.0217 24.1352 47.2686C23.7815 47.5155 23.3711 47.639 22.904 47.639ZM22.7139 47.0384C23.0942 47.0384 23.4212 46.9383 23.6948 46.7381C23.975 46.5313 24.1919 46.2677 24.3454 45.9474C24.4989 45.6271 24.5756 45.2901 24.5756 44.9364C24.5756 44.5628 24.4889 44.2158 24.3154 43.8955C24.1419 43.5752 23.9083 43.3183 23.6147 43.1248C23.3278 42.9312 23.0008 42.8345 22.6338 42.8345C22.4069 42.8345 22.1667 42.8945 21.9131 43.0147C21.6662 43.1281 21.446 43.2849 21.2525 43.4851C21.0657 43.6786 20.9556 43.8921 20.9222 44.1257V45.7272C21.0757 46.0942 21.3159 46.4045 21.6429 46.6581C21.9698 46.9116 22.3268 47.0384 22.7139 47.0384ZM25.9988 46.0375C25.9988 45.7172 26.0922 45.4403 26.2791 45.2067C26.4659 44.9665 26.7228 44.7796 27.0498 44.6462C27.3834 44.5127 27.7671 44.446 28.2009 44.446C28.4544 44.446 28.718 44.4693 28.9916 44.5161C29.2652 44.5561 29.5088 44.6128 29.7223 44.6862V44.2458C29.7223 43.8054 29.5922 43.4551 29.3319 43.1948C29.0717 42.9346 28.7113 42.8045 28.2509 42.8045C27.9773 42.8045 27.7037 42.8578 27.4301 42.9646C27.1566 43.0647 26.873 43.2148 26.5794 43.415L26.3191 42.9346C26.6594 42.701 26.9931 42.5275 27.32 42.4141C27.647 42.294 27.9807 42.2339 28.321 42.2339C28.9616 42.2339 29.4687 42.4174 29.8424 42.7844C30.2161 43.1514 30.4029 43.6586 30.4029 44.3059V46.7181C30.4029 46.8983 30.4863 46.9917 30.6532 46.9984V47.5389C30.5064 47.5589 30.4029 47.5656 30.3429 47.5589C30.176 47.5522 30.0493 47.4988 29.9625 47.3987C29.8758 47.2987 29.8291 47.1919 29.8224 47.0784L29.8124 46.6981C29.5788 46.9984 29.2752 47.2319 28.9015 47.3987C28.5278 47.5589 28.1475 47.639 27.7605 47.639C27.4201 47.639 27.1165 47.5689 26.8496 47.4288C26.5827 47.282 26.3725 47.0885 26.219 46.8482C26.0722 46.6013 25.9988 46.3311 25.9988 46.0375ZM29.4921 46.4379C29.6456 46.2577 29.7223 46.0909 29.7223 45.9374V45.1767C29.2619 44.9965 28.7814 44.9064 28.2809 44.9064C27.7938 44.9064 27.4001 45.0032 27.0998 45.1967C26.7996 45.3902 26.6494 45.6538 26.6494 45.9874C26.6494 46.2744 26.7595 46.5346 26.9797 46.7682C27.2066 47.0017 27.5202 47.1185 27.9206 47.1185C28.2476 47.1185 28.5512 47.0551 28.8315 46.9283C29.1184 46.8015 29.3386 46.638 29.4921 46.4379ZM31.8735 41.233V40.2321H32.5542V41.233H31.8735ZM31.8735 47.5389V42.324H32.5542V47.5389H31.8735ZM37.7768 47.5389L35.845 44.8664L34.7339 45.9074V47.5389H34.0533V40.2321H34.7339V45.1767L37.6867 42.334H38.4374L36.3054 44.466L38.5175 47.5389H37.7768ZM38.921 46.0375C38.921 45.7172 39.0145 45.4403 39.2013 45.2067C39.3881 44.9665 39.645 44.7796 39.972 44.6462C40.3057 44.5127 40.6894 44.446 41.1231 44.446C41.3767 44.446 41.6402 44.4693 41.9138 44.5161C42.1874 44.5561 42.431 44.6128 42.6445 44.6862V44.2458C42.6445 43.8054 42.5144 43.4551 42.2541 43.1948C41.9939 42.9346 41.6336 42.8045 41.1731 42.8045C40.8995 42.8045 40.626 42.8578 40.3524 42.9646C40.0788 43.0647 39.7952 43.2148 39.5016 43.415L39.2413 42.9346C39.5817 42.701 39.9153 42.5275 40.2423 42.4141C40.5692 42.294 40.9029 42.2339 41.2432 42.2339C41.8838 42.2339 42.3909 42.4174 42.7646 42.7844C43.1383 43.1514 43.3251 43.6586 43.3251 44.3059V46.7181C43.3251 46.8983 43.4086 46.9917 43.5754 46.9984V47.5389C43.4286 47.5589 43.3251 47.5656 43.2651 47.5589C43.0983 47.5522 42.9715 47.4988 42.8847 47.3987C42.798 47.2987 42.7513 47.1919 42.7446 47.0784L42.7346 46.6981C42.501 46.9984 42.1974 47.2319 41.8237 47.3987C41.4501 47.5589 41.0697 47.639 40.6827 47.639C40.3424 47.639 40.0387 47.5689 39.7718 47.4288C39.5049 47.282 39.2947 47.0885 39.1412 46.8482C38.9944 46.6013 38.921 46.3311 38.921 46.0375ZM42.4143 46.4379C42.5678 46.2577 42.6445 46.0909 42.6445 45.9374V45.1767C42.1841 44.9965 41.7036 44.9064 41.2032 44.9064C40.716 44.9064 40.3223 45.0032 40.0221 45.1967C39.7218 45.3902 39.5716 45.6538 39.5716 45.9874C39.5716 46.2744 39.6817 46.5346 39.9019 46.7682C40.1288 47.0017 40.4425 47.1185 40.8428 47.1185C41.1698 47.1185 41.4734 47.0551 41.7537 46.9283C42.0406 46.8015 42.2608 46.638 42.4143 46.4379ZM49.1798 47.5389H48.4992V44.6262C48.4992 44.0123 48.4058 43.5652 48.2189 43.2849C48.0388 42.998 47.7585 42.8545 47.3781 42.8545C47.1112 42.8545 46.8477 42.9212 46.5874 43.0547C46.3272 43.1815 46.097 43.3583 45.8968 43.5852C45.7033 43.8054 45.5631 44.059 45.4764 44.3459V47.5389H44.7957V42.324H45.4163V43.5051C45.6232 43.1248 45.9268 42.8178 46.3272 42.5843C46.7275 42.3507 47.1613 42.2339 47.6284 42.2339C48.0154 42.2339 48.3224 42.3273 48.5492 42.5142C48.7761 42.6944 48.9363 42.9546 49.0297 43.2949C49.1298 43.6286 49.1798 44.0256 49.1798 44.486V47.5389ZM56.906 47.5389L54.9741 44.8664L53.8631 45.9074V47.5389H53.1825V40.2321H53.8631V45.1767L56.8159 42.334H57.5666L55.4346 44.466L57.6466 47.5389H56.906ZM60.4686 47.639C59.9681 47.639 59.521 47.5155 59.1273 47.2686C58.7336 47.0217 58.4233 46.6914 58.1965 46.2777C57.9696 45.864 57.8561 45.4102 57.8561 44.9164C57.8561 44.4293 57.9662 43.9822 58.1864 43.5752C58.4133 43.1681 58.7236 42.8445 59.1173 42.6043C59.511 42.3574 59.9581 42.2339 60.4586 42.2339C60.9724 42.2339 61.4228 42.3574 61.8098 42.6043C62.1969 42.8512 62.4971 43.1781 62.7107 43.5852C62.9309 43.9856 63.041 44.426 63.041 44.9064C63.041 45.0132 63.0376 45.1033 63.031 45.1767H58.5668C58.6002 45.5504 58.7069 45.884 58.8871 46.1776C59.0673 46.4645 59.2975 46.6948 59.5777 46.8683C59.858 47.0351 60.165 47.1185 60.4986 47.1185C60.8389 47.1185 61.1592 47.0317 61.4595 46.8582C61.7598 46.6847 61.9733 46.4579 62.1001 46.1776L62.6907 46.3378C62.5839 46.5913 62.4171 46.8182 62.1902 47.0184C61.97 47.2119 61.7131 47.3654 61.4195 47.4788C61.1259 47.5856 60.8089 47.639 60.4686 47.639ZM58.5468 44.6862H62.4004C62.3737 44.3125 62.2703 43.9822 62.0901 43.6953C61.9099 43.4017 61.6797 43.1748 61.3994 43.0147C61.1192 42.8478 60.8089 42.7644 60.4686 42.7644C60.1283 42.7644 59.818 42.8478 59.5377 43.0147C59.2574 43.1748 59.0272 43.4017 58.8471 43.6953C58.6736 43.9822 58.5735 44.3125 58.5468 44.6862ZM66.6935 42.9246C66.2398 42.9379 65.8394 43.0647 65.4924 43.3049C65.1521 43.5451 64.9119 43.8755 64.7717 44.2959V47.5389H64.0911V42.324H64.7317V43.5752C64.9119 43.2082 65.1488 42.9112 65.4424 42.6843C65.7426 42.4575 66.0596 42.3307 66.3933 42.304C66.46 42.2973 66.5167 42.294 66.5634 42.294C66.6101 42.294 66.6535 42.2973 66.6935 42.304V42.9246ZM69.6959 47.639C69.1955 47.639 68.7484 47.5155 68.3547 47.2686C67.961 47.0217 67.6507 46.6914 67.4238 46.2777C67.1969 45.864 67.0835 45.4102 67.0835 44.9164C67.0835 44.4293 67.1936 43.9822 67.4138 43.5752C67.6407 43.1681 67.951 42.8445 68.3447 42.6043C68.7384 42.3574 69.1855 42.2339 69.6859 42.2339C70.1997 42.2339 70.6502 42.3574 71.0372 42.6043C71.4242 42.8512 71.7245 43.1781 71.938 43.5852C72.1582 43.9856 72.2683 44.426 72.2683 44.9064C72.2683 45.0132 72.265 45.1033 72.2583 45.1767H67.7942C67.8275 45.5504 67.9343 45.884 68.1145 46.1776C68.2946 46.4645 68.5248 46.6948 68.8051 46.8683C69.0854 47.0351 69.3923 47.1185 69.726 47.1185C70.0663 47.1185 70.3866 47.0317 70.6869 46.8582C70.9871 46.6847 71.2007 46.4579 71.3275 46.1776L71.918 46.3378C71.8113 46.5913 71.6444 46.8182 71.4176 47.0184C71.1973 47.2119 70.9404 47.3654 70.6468 47.4788C70.3532 47.5856 70.0363 47.639 69.6959 47.639ZM67.7741 44.6862H71.6277C71.6011 44.3125 71.4976 43.9822 71.3175 43.6953C71.1373 43.4017 70.9071 43.1748 70.6268 43.0147C70.3465 42.8478 70.0363 42.7644 69.6959 42.7644C69.3556 42.7644 69.0453 42.8478 68.7651 43.0147C68.4848 43.1748 68.2546 43.4017 68.0744 43.6953C67.9009 43.9822 67.8008 44.3125 67.7741 44.6862ZM75.0301 47.639C74.603 47.639 74.206 47.5689 73.839 47.4288C73.4786 47.282 73.1617 47.0684 72.8881 46.7882L73.1683 46.3077C73.4619 46.5813 73.7555 46.7815 74.0491 46.9083C74.3494 47.0284 74.6664 47.0885 75 47.0885C75.4004 47.0885 75.7274 47.0084 75.981 46.8482C76.2412 46.6814 76.3713 46.4445 76.3713 46.1376C76.3713 45.9307 76.3079 45.7739 76.1811 45.6671C76.061 45.5537 75.8842 45.4636 75.6506 45.3969C75.4238 45.3302 75.1502 45.2534 74.8299 45.1667C74.4695 45.0666 74.1659 44.9631 73.919 44.8564C73.6788 44.7429 73.4953 44.6028 73.3685 44.436C73.2484 44.2625 73.1883 44.0389 73.1883 43.7654C73.1883 43.4317 73.2718 43.1514 73.4386 42.9246C73.6121 42.6977 73.8456 42.5275 74.1392 42.4141C74.4395 42.294 74.7732 42.2339 75.1402 42.2339C75.5405 42.2339 75.8942 42.2973 76.2012 42.4241C76.5081 42.5509 76.7583 42.7277 76.9519 42.9546L76.6216 43.415C76.4414 43.2015 76.2178 43.0447 75.9509 42.9446C75.6907 42.8378 75.4071 42.7844 75.1001 42.7844C74.8866 42.7844 74.6831 42.8145 74.4896 42.8745C74.296 42.9279 74.1359 43.0213 74.0091 43.1548C73.889 43.2816 73.8289 43.4584 73.8289 43.6853C73.8289 43.9655 73.9324 44.1591 74.1392 44.2658C74.3461 44.3726 74.6597 44.486 75.0801 44.6061C75.4738 44.7129 75.8175 44.8197 76.1111 44.9264C76.4047 45.0332 76.6316 45.1767 76.7917 45.3568C76.9519 45.5303 77.0319 45.7739 77.0319 46.0875C77.0319 46.5746 76.8484 46.955 76.4814 47.2286C76.1144 47.5022 75.6306 47.639 75.0301 47.639ZM77.7366 46.0375C77.7366 45.7172 77.83 45.4403 78.0168 45.2067C78.2037 44.9665 78.4606 44.7796 78.7876 44.6462C79.1212 44.5127 79.5049 44.446 79.9386 44.446C80.1922 44.446 80.4558 44.4693 80.7294 44.5161C81.003 44.5561 81.2465 44.6128 81.4601 44.6862V44.2458C81.4601 43.8054 81.3299 43.4551 81.0697 43.1948C80.8095 42.9346 80.4491 42.8045 79.9887 42.8045C79.7151 42.8045 79.4415 42.8578 79.1679 42.9646C78.8943 43.0647 78.6107 43.2148 78.3171 43.415L78.0569 42.9346C78.3972 42.701 78.7308 42.5275 79.0578 42.4141C79.3848 42.294 79.7184 42.2339 80.0587 42.2339C80.6993 42.2339 81.2065 42.4174 81.5802 42.7844C81.9539 43.1514 82.1407 43.6586 82.1407 44.3059V46.7181C82.1407 46.8983 82.2241 46.9917 82.3909 46.9984V47.5389C82.2441 47.5589 82.1407 47.5656 82.0806 47.5589C81.9138 47.5522 81.787 47.4988 81.7003 47.3987C81.6135 47.2987 81.5668 47.1919 81.5602 47.0784L81.5501 46.6981C81.3166 46.9984 81.013 47.2319 80.6393 47.3987C80.2656 47.5589 79.8853 47.639 79.4982 47.639C79.1579 47.639 78.8543 47.5689 78.5874 47.4288C78.3205 47.282 78.1103 47.0885 77.9568 46.8482C77.81 46.6013 77.7366 46.3311 77.7366 46.0375ZM81.2298 46.4379C81.3833 46.2577 81.4601 46.0909 81.4601 45.9374V45.1767C80.9996 44.9965 80.5192 44.9064 80.0187 44.9064C79.5316 44.9064 79.1379 45.0032 78.8376 45.1967C78.5373 45.3902 78.3872 45.6538 78.3872 45.9874C78.3872 46.2744 78.4973 46.5346 78.7175 46.7682C78.9444 47.0017 79.258 47.1185 79.6584 47.1185C79.9853 47.1185 80.289 47.0551 80.5692 46.9283C80.8562 46.8015 81.0764 46.638 81.2298 46.4379ZM87.9954 47.5389H87.3147V44.6262C87.3147 43.4451 86.9144 42.8545 86.1136 42.8545C85.8534 42.8545 85.5998 42.9212 85.3529 43.0547C85.106 43.1815 84.8858 43.3583 84.6923 43.5852C84.5054 43.8054 84.372 44.059 84.2919 44.3459V47.5389H83.6113V40.2321H84.2919V43.5051C84.4988 43.1181 84.7857 42.8111 85.1527 42.5843C85.5264 42.3507 85.9234 42.2339 86.3438 42.2339C86.7442 42.2339 87.0645 42.3307 87.3047 42.5242C87.545 42.711 87.7185 42.9746 87.8252 43.3149C87.9387 43.6486 87.9954 44.0389 87.9954 44.486V47.5389ZM89.0264 46.0375C89.0264 45.7172 89.1198 45.4403 89.3067 45.2067C89.4935 44.9665 89.7504 44.7796 90.0774 44.6462C90.411 44.5127 90.7947 44.446 91.2285 44.446C91.482 44.446 91.7456 44.4693 92.0192 44.5161C92.2928 44.5561 92.5364 44.6128 92.7499 44.6862V44.2458C92.7499 43.8054 92.6198 43.4551 92.3595 43.1948C92.0993 42.9346 91.7389 42.8045 91.2785 42.8045C91.0049 42.8045 90.7313 42.8578 90.4578 42.9646C90.1842 43.0647 89.9006 43.2148 89.607 43.415L89.3467 42.9346C89.687 42.701 90.0207 42.5275 90.3476 42.4141C90.6746 42.294 91.0083 42.2339 91.3486 42.2339C91.9892 42.2339 92.4963 42.4174 92.87 42.7844C93.2437 43.1514 93.4305 43.6586 93.4305 44.3059V46.7181C93.4305 46.8983 93.5139 46.9917 93.6808 46.9984V47.5389C93.534 47.5589 93.4305 47.5656 93.3705 47.5589C93.2036 47.5522 93.0769 47.4988 92.9901 47.3987C92.9034 47.2987 92.8567 47.1919 92.85 47.0784L92.84 46.6981C92.6064 46.9984 92.3028 47.2319 91.9291 47.3987C91.5554 47.5589 91.1751 47.639 90.7881 47.639C90.4477 47.639 90.1441 47.5689 89.8772 47.4288C89.6103 47.282 89.4001 47.0885 89.2466 46.8482C89.0998 46.6013 89.0264 46.3311 89.0264 46.0375ZM92.5197 46.4379C92.6732 46.2577 92.7499 46.0909 92.7499 45.9374V45.1767C92.2895 44.9965 91.809 44.9064 91.3085 44.9064C90.8214 44.9064 90.4277 45.0032 90.1274 45.1967C89.8272 45.3902 89.677 45.6538 89.677 45.9874C89.677 46.2744 89.7871 46.5346 90.0073 46.7682C90.2342 47.0017 90.5478 47.1185 90.9482 47.1185C91.2752 47.1185 91.5788 47.0551 91.8591 46.9283C92.146 46.8015 92.3662 46.638 92.5197 46.4379ZM99.2852 47.5389H98.6046V44.6262C98.6046 44.0123 98.5112 43.5652 98.3243 43.2849C98.1442 42.998 97.8639 42.8545 97.4835 42.8545C97.2166 42.8545 96.953 42.9212 96.6928 43.0547C96.4326 43.1815 96.2023 43.3583 96.0022 43.5852C95.8086 43.8054 95.6685 44.059 95.5818 44.3459V47.5389H94.9011V42.324H95.5217V43.5051C95.7286 43.1248 96.0322 42.8178 96.4326 42.5843C96.8329 42.3507 97.2667 42.2339 97.7338 42.2339C98.1208 42.2339 98.4277 42.3273 98.6546 42.5142C98.8815 42.6944 99.0417 42.9546 99.1351 43.2949C99.2352 43.6286 99.2852 44.0256 99.2852 44.486V47.5389ZM102.867 46.0375C102.867 45.7172 102.961 45.4403 103.148 45.2067C103.335 44.9665 103.591 44.7796 103.918 44.6462C104.252 44.5127 104.636 44.446 105.07 44.446C105.323 44.446 105.587 44.4693 105.86 44.5161C106.134 44.5561 106.377 44.6128 106.591 44.6862V44.2458C106.591 43.8054 106.461 43.4551 106.201 43.1948C105.94 42.9346 105.58 42.8045 105.12 42.8045C104.846 42.8045 104.572 42.8578 104.299 42.9646C104.025 43.0647 103.742 43.2148 103.448 43.415L103.188 42.9346C103.528 42.701 103.862 42.5275 104.189 42.4141C104.516 42.294 104.849 42.2339 105.19 42.2339C105.83 42.2339 106.337 42.4174 106.711 42.7844C107.085 43.1514 107.272 43.6586 107.272 44.3059V46.7181C107.272 46.8983 107.355 46.9917 107.522 46.9984V47.5389C107.375 47.5589 107.272 47.5656 107.212 47.5589C107.045 47.5522 106.918 47.4988 106.831 47.3987C106.744 47.2987 106.698 47.1919 106.691 47.0784L106.681 46.6981C106.447 46.9984 106.144 47.2319 105.77 47.3987C105.396 47.5589 105.016 47.639 104.629 47.639C104.289 47.639 103.985 47.5689 103.718 47.4288C103.451 47.282 103.241 47.0885 103.088 46.8482C102.941 46.6013 102.867 46.3311 102.867 46.0375ZM106.361 46.4379C106.514 46.2577 106.591 46.0909 106.591 45.9374V45.1767C106.131 44.9965 105.65 44.9064 105.15 44.9064C104.662 44.9064 104.269 45.0032 103.968 45.1967C103.668 45.3902 103.518 45.6538 103.518 45.9874C103.518 46.2744 103.628 46.5346 103.848 46.7682C104.075 47.0017 104.389 47.1185 104.789 47.1185C105.116 47.1185 105.42 47.0551 105.7 46.9283C105.987 46.8015 106.207 46.638 106.361 46.4379ZM113.126 47.5389H112.446V44.6262C112.446 44.0123 112.352 43.5652 112.165 43.2849C111.985 42.998 111.705 42.8545 111.325 42.8545C111.058 42.8545 110.794 42.9212 110.534 43.0547C110.274 43.1815 110.043 43.3583 109.843 43.5852C109.65 43.8054 109.51 44.059 109.423 44.3459V47.5389H108.742V42.324H109.363V43.5051C109.57 43.1248 109.873 42.8178 110.274 42.5843C110.674 42.3507 111.108 42.2339 111.575 42.2339C111.962 42.2339 112.269 42.3273 112.496 42.5142C112.723 42.6944 112.883 42.9546 112.976 43.2949C113.076 43.6286 113.126 44.0256 113.126 44.486V47.5389ZM114.227 44.9465C114.227 44.4527 114.327 44.0022 114.528 43.5952C114.735 43.1815 115.018 42.8512 115.378 42.6043C115.739 42.3574 116.149 42.2339 116.61 42.2339C117.043 42.2339 117.43 42.3507 117.771 42.5843C118.118 42.8111 118.388 43.0881 118.581 43.415V40.2321H119.262V46.7181C119.262 46.8983 119.342 46.9917 119.502 46.9984V47.5389C119.369 47.5589 119.265 47.5656 119.192 47.5589C119.045 47.5522 118.918 47.4988 118.812 47.3987C118.712 47.292 118.662 47.1719 118.662 47.0384V46.5279C118.455 46.8683 118.174 47.1385 117.821 47.3387C117.467 47.5389 117.1 47.639 116.72 47.639C116.359 47.639 116.026 47.5656 115.719 47.4188C115.412 47.272 115.145 47.0718 114.918 46.8182C114.698 46.5646 114.528 46.2777 114.408 45.9574C114.287 45.6304 114.227 45.2934 114.227 44.9465ZM118.581 45.7472V44.1357C118.495 43.8955 118.355 43.6786 118.161 43.4851C117.968 43.2849 117.747 43.1281 117.5 43.0147C117.26 42.8945 117.02 42.8345 116.78 42.8345C116.406 42.8345 116.079 42.9379 115.799 43.1448C115.525 43.345 115.312 43.6085 115.158 43.9355C115.005 44.2558 114.928 44.5928 114.928 44.9465C114.928 45.3201 115.011 45.6671 115.178 45.9874C115.352 46.3077 115.585 46.5646 115.879 46.7582C116.173 46.945 116.503 47.0384 116.87 47.0384C117.097 47.0384 117.334 46.9817 117.581 46.8683C117.834 46.7481 118.054 46.5913 118.241 46.3978C118.435 46.2043 118.548 45.9874 118.581 45.7472ZM120.384 46.0375C120.384 45.7172 120.477 45.4403 120.664 45.2067C120.851 44.9665 121.108 44.7796 121.435 44.6462C121.768 44.5127 122.152 44.446 122.586 44.446C122.839 44.446 123.103 44.4693 123.377 44.5161C123.65 44.5561 123.894 44.6128 124.107 44.6862V44.2458C124.107 43.8054 123.977 43.4551 123.717 43.1948C123.457 42.9346 123.096 42.8045 122.636 42.8045C122.362 42.8045 122.089 42.8578 121.815 42.9646C121.542 43.0647 121.258 43.2148 120.964 43.415L120.704 42.9346C121.044 42.701 121.378 42.5275 121.705 42.4141C122.032 42.294 122.366 42.2339 122.706 42.2339C123.347 42.2339 123.854 42.4174 124.227 42.7844C124.601 43.1514 124.788 43.6586 124.788 44.3059V46.7181C124.788 46.8983 124.871 46.9917 125.038 46.9984V47.5389C124.891 47.5589 124.788 47.5656 124.728 47.5589C124.561 47.5522 124.434 47.4988 124.348 47.3987C124.261 47.2987 124.214 47.1919 124.207 47.0784L124.197 46.6981C123.964 46.9984 123.66 47.2319 123.287 47.3987C122.913 47.5589 122.533 47.639 122.145 47.639C121.805 47.639 121.502 47.5689 121.235 47.4288C120.968 47.282 120.758 47.0885 120.604 46.8482C120.457 46.6013 120.384 46.3311 120.384 46.0375ZM123.877 46.4379C124.031 46.2577 124.107 46.0909 124.107 45.9374V45.1767C123.647 44.9965 123.166 44.9064 122.666 44.9064C122.179 44.9064 121.785 45.0032 121.485 45.1967C121.185 45.3902 121.034 45.6538 121.034 45.9874C121.034 46.2744 121.145 46.5346 121.365 46.7682C121.592 47.0017 121.905 47.1185 122.306 47.1185C122.633 47.1185 122.936 47.0551 123.216 46.9283C123.503 46.8015 123.724 46.638 123.877 46.4379ZM128.459 44.9465C128.459 44.4527 128.56 44.0022 128.76 43.5952C128.967 43.1815 129.25 42.8512 129.61 42.6043C129.971 42.3574 130.381 42.2339 130.842 42.2339C131.275 42.2339 131.662 42.3507 132.003 42.5843C132.35 42.8111 132.62 43.0881 132.813 43.415V40.2321H133.494V46.7181C133.494 46.8983 133.574 46.9917 133.734 46.9984V47.5389C133.601 47.5589 133.497 47.5656 133.424 47.5589C133.277 47.5522 133.15 47.4988 133.044 47.3987C132.944 47.292 132.894 47.1719 132.894 47.0384V46.5279C132.687 46.8683 132.406 47.1385 132.053 47.3387C131.699 47.5389 131.332 47.639 130.952 47.639C130.591 47.639 130.258 47.5656 129.951 47.4188C129.644 47.272 129.377 47.0718 129.15 46.8182C128.93 46.5646 128.76 46.2777 128.64 45.9574C128.519 45.6304 128.459 45.2934 128.459 44.9465ZM132.813 45.7472V44.1357C132.727 43.8955 132.587 43.6786 132.393 43.4851C132.2 43.2849 131.979 43.1281 131.732 43.0147C131.492 42.8945 131.252 42.8345 131.012 42.8345C130.638 42.8345 130.311 42.9379 130.031 43.1448C129.757 43.345 129.544 43.6085 129.39 43.9355C129.237 44.2558 129.16 44.5928 129.16 44.9465C129.16 45.3201 129.243 45.6671 129.41 45.9874C129.584 46.3077 129.817 46.5646 130.111 46.7582C130.405 46.945 130.735 47.0384 131.102 47.0384C131.329 47.0384 131.566 46.9817 131.813 46.8683C132.066 46.7481 132.286 46.5913 132.473 46.3978C132.667 46.2043 132.78 45.9874 132.813 45.7472ZM135.036 41.233V40.2321H135.717V41.233H135.036ZM135.036 47.5389V42.324H135.717V47.5389H135.036ZM138.928 47.639C138.501 47.639 138.104 47.5689 137.737 47.4288C137.376 47.282 137.059 47.0684 136.786 46.7882L137.066 46.3077C137.36 46.5813 137.653 46.7815 137.947 46.9083C138.247 47.0284 138.564 47.0885 138.898 47.0885C139.298 47.0885 139.625 47.0084 139.879 46.8482C140.139 46.6814 140.269 46.4445 140.269 46.1376C140.269 45.9307 140.205 45.7739 140.079 45.6671C139.959 45.5537 139.782 45.4636 139.548 45.3969C139.321 45.3302 139.048 45.2534 138.727 45.1667C138.367 45.0666 138.063 44.9631 137.817 44.8564C137.576 44.7429 137.393 44.6028 137.266 44.436C137.146 44.2625 137.086 44.0389 137.086 43.7654C137.086 43.4317 137.169 43.1514 137.336 42.9246C137.51 42.6977 137.743 42.5275 138.037 42.4141C138.337 42.294 138.671 42.2339 139.038 42.2339C139.438 42.2339 139.792 42.2973 140.099 42.4241C140.406 42.5509 140.656 42.7277 140.849 42.9546L140.519 43.415C140.339 43.2015 140.115 43.0447 139.848 42.9446C139.588 42.8378 139.305 42.7844 138.998 42.7844C138.784 42.7844 138.581 42.8145 138.387 42.8745C138.194 42.9279 138.033 43.0213 137.907 43.1548C137.787 43.2816 137.727 43.4584 137.727 43.6853C137.727 43.9655 137.83 44.1591 138.037 44.2658C138.244 44.3726 138.557 44.486 138.978 44.6061C139.371 44.7129 139.715 44.8197 140.009 44.9264C140.302 45.0332 140.529 45.1767 140.689 45.3568C140.849 45.5303 140.93 45.7739 140.93 46.0875C140.93 46.5746 140.746 46.955 140.379 47.2286C140.012 47.5022 139.528 47.639 138.928 47.639ZM142.055 41.233V40.2321H142.735V41.233H142.055ZM142.055 47.5389V42.324H142.735V47.5389H142.055ZM148.618 47.5389H147.938V44.6262C147.938 44.0123 147.844 43.5652 147.657 43.2849C147.477 42.998 147.197 42.8545 146.817 42.8545C146.55 42.8545 146.286 42.9212 146.026 43.0547C145.766 43.1815 145.536 43.3583 145.335 43.5852C145.142 43.8054 145.002 44.059 144.915 44.3459V47.5389H144.234V42.324H144.855V43.5051C145.062 43.1248 145.365 42.8178 145.766 42.5843C146.166 42.3507 146.6 42.2339 147.067 42.2339C147.454 42.2339 147.761 42.3273 147.988 42.5142C148.215 42.6944 148.375 42.9546 148.468 43.2949C148.568 43.6286 148.618 44.0256 148.618 44.486V47.5389ZM150.07 41.233V40.2321H150.75V41.233H150.07ZM150.07 47.5389V42.324H150.75V47.5389H150.07Z" />
</svg>