<svg viewBox="0 0 120 120" xmlns="http://www.w3.org/2000/svg">
    <path
        d="M29.8135 105.368H19.6297L30.5541 42.4131H40.3676L39.2567 49.264C41.0466 46.8569 43.2068 44.9436 45.7373 43.524C48.3296 42.0427 51.1995 41.3021 54.3473 41.3021C58.2974 41.3021 61.5994 42.3205 64.2534 44.3572C66.9691 46.394 68.9132 49.1097 70.0859 52.5043C71.3203 55.8989 71.6598 59.633 71.1043 63.7065C70.5488 67.9652 69.1293 71.7919 66.8456 75.1865C64.562 78.5811 61.7228 81.2659 58.3282 83.241C54.9953 85.1543 51.3538 86.111 47.4038 86.111C44.0091 86.111 41.2626 85.2777 39.1641 83.6113C37.0656 81.8831 35.5226 79.6921 34.5351 77.0381L29.8135 105.368ZM60.9205 63.7065C61.2908 61.2994 61.1365 59.0775 60.4576 57.0407C59.8404 55.004 58.7294 53.3993 57.1247 52.2266C55.52 50.9922 53.5141 50.375 51.107 50.375C48.9468 50.375 46.8483 50.9613 44.8115 52.134C42.7747 53.3067 41.0157 54.9114 39.5344 56.9482C38.1149 58.9232 37.2199 61.176 36.8496 63.7065C36.541 66.0519 36.6953 68.243 37.3125 70.2797C37.9914 72.2548 39.0715 73.8595 40.5528 75.0939C42.0341 76.3283 43.824 76.9764 45.9225 77.0381C48.3296 77.0998 50.5823 76.5443 52.6808 75.3716C54.841 74.199 56.6618 72.5942 58.1431 70.5575C59.6244 68.5207 60.5502 66.2371 60.9205 63.7065Z" />
    <path
        d="M89.4641 20.1938H101.87L91.8712 65.373H84.0945L89.4641 20.1938ZM78.8174 80.4636C78.8174 78.6737 79.4346 77.1924 80.669 76.0197C81.9651 74.847 83.539 74.2607 85.3906 74.2607C87.2422 74.2607 88.7852 74.847 90.0196 76.0197C91.254 77.1924 91.8712 78.6737 91.8712 80.4636C91.8712 82.1917 91.254 83.673 90.0196 84.9074C88.7852 86.1418 87.2422 86.759 85.3906 86.759C83.539 86.759 81.9651 86.1418 80.669 84.9074C79.4346 83.673 78.8174 82.1917 78.8174 80.4636Z" />
    <path fill-rule="evenodd" clip-rule="evenodd"
        d="M60 120C93.1371 120 120 93.1371 120 60C120 26.8629 93.1371 0 60 0C26.8629 0 0 26.8629 0 60C0 93.1371 26.8629 120 60 120ZM60 111C88.1665 111 111 88.1665 111 60C111 31.8335 88.1665 9 60 9C31.8335 9 9 31.8335 9 60C9 88.1665 31.8335 111 60 111Z" />
</svg>