<svg viewBox="0 0 12 14" xmlns="http://www.w3.org/2000/svg">
    <path
        d="M9.67925 8.27881C10.4734 8.27881 11.1172 8.9226 11.1172 9.71675V10.0847C11.1172 10.6565 10.9128 11.2094 10.541 11.6439C9.53755 12.8162 8.01119 13.3948 6.00003 13.3948C3.98856 13.3948 2.46294 12.816 1.46145 11.6432C1.09075 11.2091 0.887085 10.657 0.887085 10.0861V9.71675C0.887085 8.9226 1.53087 8.27881 2.32502 8.27881H9.67925ZM9.67925 9.23791H2.32502C2.06057 9.23791 1.84619 9.45229 1.84619 9.71675V10.0861C1.84619 10.4286 1.96838 10.7599 2.1908 11.0203C2.99217 11.9588 4.24915 12.4357 6.00003 12.4357C7.75091 12.4357 9.00898 11.9588 9.81238 11.0202C10.0355 10.7595 10.1581 10.4277 10.1581 10.0847V9.71675C10.1581 9.45229 9.9437 9.23791 9.67925 9.23791ZM6.00003 0.609009C7.76568 0.609009 9.19703 2.04036 9.19703 3.80601C9.19703 5.57167 7.76568 7.00302 6.00003 7.00302C4.23437 7.00302 2.80302 5.57167 2.80302 3.80601C2.80302 2.04036 4.23437 0.609009 6.00003 0.609009ZM6.00003 1.56811C4.76407 1.56811 3.76212 2.57005 3.76212 3.80601C3.76212 5.04197 4.76407 6.04392 6.00003 6.04392C7.23599 6.04392 8.23793 5.04197 8.23793 3.80601C8.23793 2.57005 7.23599 1.56811 6.00003 1.56811Z" />
</svg>