<svg viewBox="0 0 14 14" xmlns="http://www.w3.org/2000/svg">
    <path
        d="M6.57531 1.7551C6.83091 1.73471 7.02158 1.51098 7.00119 1.25538C6.9808 0.999783 6.75707 0.809108 6.50147 0.829497C3.31554 1.08364 0.809692 3.74895 0.809692 6.99999C0.809692 10.4188 3.58118 13.1903 6.99999 13.1903C10.2492 13.1903 12.9134 10.6872 13.1701 7.50382C13.1907 7.24824 13.0002 7.02435 12.7446 7.00374C12.489 6.98313 12.2651 7.17361 12.2445 7.4292C12.0264 10.1342 9.76142 12.2617 6.99999 12.2617C4.094 12.2617 1.73824 9.90598 1.73824 6.99999C1.73824 4.23702 3.86815 1.97105 6.57531 1.7551ZM10.5268 2.46501C10.7001 2.27603 10.9937 2.26332 11.1827 2.43662C11.3154 2.55829 11.4428 2.68567 11.5644 2.81838C11.7376 3.0074 11.7249 3.30109 11.5358 3.47434C11.3468 3.6476 11.0531 3.63482 10.8799 3.4458C10.7764 3.33288 10.668 3.2245 10.5551 3.12097C10.3662 2.94767 10.3535 2.65399 10.5268 2.46501ZM6.53572 3.28584C6.77064 3.28584 6.96499 3.46061 6.99575 3.68714L6.99999 3.75011V7.00001H9.01184C9.26812 7.00001 9.47611 7.20801 9.47611 7.46429C9.47611 7.69921 9.30134 7.89356 9.07481 7.92432L9.01184 7.92856H6.53572C6.3008 7.92856 6.10645 7.75379 6.07569 7.52726L6.07145 7.46429V3.75011C6.07145 3.49383 6.27944 3.28584 6.53572 3.28584ZM8.10247 1.36078C8.17171 1.11389 8.42798 0.96988 8.67486 1.03912C8.90208 1.10284 9.124 1.17919 9.33983 1.26736C9.57719 1.36434 9.691 1.63537 9.59403 1.87274C9.49705 2.1101 9.22601 2.22391 8.98865 2.12694C8.80541 2.05207 8.61701 1.98726 8.42413 1.93317C8.17725 1.86393 8.03323 1.60766 8.10247 1.36078ZM12.7315 4.65743C12.6344 4.42012 12.3633 4.30644 12.126 4.40353C11.8887 4.50062 11.775 4.77171 11.8721 5.00903C11.9292 5.14862 11.9804 5.29121 12.0256 5.43649C12.0399 5.4825 12.0536 5.52878 12.0666 5.57532C12.1359 5.8222 12.3922 5.96618 12.6391 5.89692C12.8859 5.82765 13.0299 5.57137 12.9607 5.32449C12.9453 5.26966 12.9292 5.21514 12.9123 5.16094C12.8591 4.9898 12.7987 4.82184 12.7315 4.65743Z" />
</svg>